<svg width="161" height="47" viewBox="0 0 161 47" fill="none" xmlns="http://www.w3.org/2000/svg">
<g clip-path="url(#clip0_1_12)">
<path fill-rule="evenodd" clip-rule="evenodd" d="M21.6767 0C9.51202 1.09722 0 11.1862 0 23.499C0 35.8432 9.51202 45.9322 21.6767 46.998V0Z" fill="#F3525A"/>
<path fill-rule="evenodd" clip-rule="evenodd" d="M47.4945 25.6306V47C36.0545 45.997 26.9543 36.9739 25.9427 25.6306H47.4945Z" fill="#F3525A"/>
<path fill-rule="evenodd" clip-rule="evenodd" d="M26.0378 21.4007V0C37.4462 1.03441 46.5782 10.0575 47.5897 21.4007H26.0378Z" fill="#F3525A"/>
<path d="M56.1132 15.9999V11.7495H76.3003V15.9999H68.7716V36.1302H63.6372V15.9999H56.1132Z" fill="white"/>
<path d="M80.3684 36.4234C78.5051 36.4234 76.8951 36.0277 75.5389 35.241C74.1822 34.4495 73.1357 33.3462 72.3989 31.9309C71.6621 30.5156 71.2956 28.8676 71.2956 26.9961C71.2956 25.106 71.6621 23.4533 72.3989 22.0381C73.1357 20.6228 74.1822 19.5195 75.5389 18.728C76.8951 17.9366 78.5051 17.5455 80.3684 17.5455C82.2317 17.5455 83.8417 17.9413 85.1979 18.7327C86.5546 19.5241 87.6011 20.6275 88.3379 22.0427C89.0747 23.458 89.4412 25.1107 89.4412 27.0008C89.4412 28.8723 89.0747 30.5203 88.3379 31.9356C87.6011 33.3508 86.5546 34.4542 85.1979 35.2456C83.8417 36.0324 82.2317 36.4234 80.3684 36.4234ZM80.3921 32.4989C81.2416 32.4989 81.9452 32.2568 82.5182 31.7773C83.0907 31.2978 83.5178 30.6414 83.8086 29.808C84.0998 28.9747 84.2452 28.025 84.2452 26.9635C84.2452 25.9021 84.0998 24.9524 83.8086 24.119C83.5178 23.2857 83.086 22.6293 82.5182 22.1451C81.95 21.661 81.2416 21.4189 80.3921 21.4189C79.5378 21.4189 78.8195 21.661 78.2375 22.1451C77.6555 22.6293 77.2189 23.2857 76.9282 24.119C76.637 24.9524 76.4916 25.9021 76.4916 26.9635C76.4916 28.025 76.637 28.9747 76.9282 29.808C77.2189 30.6414 77.6555 31.2978 78.2375 31.7773C78.8195 32.2568 79.5378 32.4989 80.3921 32.4989Z" fill="white"/>
<path d="M91.5943 36.4235V18.1415H96.5508V21.3305H96.743C97.0811 20.1945 97.6441 19.3379 98.4326 18.7514C99.221 18.1647 100.136 17.8761 101.169 17.8761C101.427 17.8761 101.699 17.8901 101.995 17.9227C102.291 17.9553 102.549 17.9971 102.774 18.053V22.5502C102.535 22.4804 102.201 22.4152 101.779 22.3593C101.357 22.3035 100.967 22.2755 100.615 22.2755C99.864 22.2755 99.193 22.4385 98.6063 22.7597C98.0196 23.0809 97.5551 23.5278 97.2123 24.1005C96.8742 24.6731 96.7009 25.3295 96.7009 26.0744V36.4235H91.5943Z" fill="white"/>
<path d="M110.148 36.4235C108.97 36.4235 107.923 36.2186 107.003 35.8089C106.083 35.3992 105.356 34.794 104.825 33.9886C104.295 33.1832 104.027 32.1777 104.027 30.9719C104.027 29.957 104.215 29.105 104.59 28.4114C104.966 27.7224 105.478 27.1637 106.126 26.7447C106.773 26.3257 107.51 26.0045 108.341 25.7904C109.167 25.5762 110.04 25.4272 110.95 25.3388C112.02 25.2271 112.889 25.1247 113.541 25.0222C114.198 24.9244 114.672 24.7755 114.968 24.5753C115.264 24.3751 115.414 24.0818 115.414 23.6954V23.6256C115.414 22.8714 115.175 22.2895 114.7 21.8751C114.226 21.4608 113.55 21.2559 112.678 21.2559C111.758 21.2559 111.026 21.4561 110.481 21.8565C109.936 22.2569 109.559 22.6634 109.385 23.264H104.65C104.89 22.1514 105.388 20.9068 106.092 20.0921C106.797 19.2774 107.707 18.6535 108.824 18.2113C109.941 17.769 111.232 17.5502 112.706 17.5502C113.729 17.5502 114.71 17.6713 115.653 17.9086C116.592 18.1461 117.427 18.5139 118.159 19.0167C118.892 19.5194 119.469 20.1573 119.892 20.9393C120.314 21.7215 120.53 22.6572 120.53 23.742V36.0743H115.681V33.537H115.536C115.24 34.1097 114.846 34.6124 114.348 35.0408C113.851 35.4737 113.255 35.8089 112.56 36.051C111.861 36.3024 111.058 36.4235 110.148 36.4235ZM111.612 32.9272C112.363 32.9272 113.03 32.7782 113.602 32.4802C114.179 32.1823 114.63 31.7819 114.959 31.2699C115.287 30.7624 115.451 30.1851 115.451 29.5427V27.6013C115.292 27.7038 115.071 27.7969 114.799 27.8807C114.522 27.9645 114.212 28.0389 113.87 28.1088C113.527 28.1786 113.18 28.2345 112.837 28.2857C112.495 28.3369 112.18 28.3834 111.903 28.4207C111.302 28.5092 110.777 28.6488 110.331 28.8397C109.88 29.0305 109.533 29.2866 109.289 29.6078C109.04 29.9291 108.918 30.3294 108.918 30.8043C108.918 31.4933 109.171 32.0194 109.678 32.3825C110.18 32.7456 110.828 32.9272 111.612 32.9272Z" fill="white"/>
<path d="M130.108 36.4234C128.71 36.4234 127.442 36.065 126.311 35.348C125.18 34.6311 124.284 33.5697 123.622 32.1683C122.96 30.7671 122.631 29.0492 122.631 27.0101C122.631 24.9152 122.969 23.1694 123.65 21.7774C124.33 20.3854 125.236 19.3426 126.368 18.6489C127.499 17.9552 128.742 17.6061 130.094 17.6061C131.127 17.6061 131.99 17.7783 132.68 18.1228C133.37 18.4673 133.934 18.8956 134.361 19.4078C134.788 19.9198 135.116 20.4226 135.337 20.9115H135.492V11.7495H140.594V36.1255H135.553V33.1972H135.337C135.097 33.7047 134.759 34.2074 134.323 34.7009C133.887 35.1944 133.323 35.6087 132.633 35.9346C131.943 36.2605 131.099 36.4234 130.108 36.4234ZM131.727 32.3918C132.554 32.3918 133.248 32.1683 133.821 31.7214C134.393 31.2745 134.835 30.646 135.14 29.836C135.449 29.0259 135.6 28.0762 135.6 26.9915C135.6 25.9068 135.449 24.9617 135.144 24.1563C134.839 23.3556 134.403 22.7364 133.826 22.2988C133.248 21.8612 132.549 21.6424 131.727 21.6424C130.887 21.6424 130.178 21.8705 129.601 22.322C129.024 22.7737 128.587 23.4021 128.292 24.2029C127.996 25.0036 127.846 25.9347 127.846 26.9868C127.846 28.0483 127.996 28.9887 128.297 29.8034C128.597 30.6181 129.033 31.2512 129.606 31.7075C130.183 32.1637 130.887 32.3918 131.727 32.3918Z" fill="white"/>
<path d="M151.927 36.4234C150.064 36.4234 148.454 36.0277 147.098 35.241C145.741 34.4495 144.695 33.3462 143.958 31.9309C143.221 30.5156 142.855 28.8676 142.855 26.9961C142.855 25.106 143.221 23.4533 143.958 22.0381C144.695 20.6228 145.741 19.5195 147.098 18.728C148.454 17.9366 150.064 17.5455 151.927 17.5455C153.791 17.5455 155.401 17.9413 156.757 18.728C158.113 19.5195 159.16 20.6228 159.897 22.0381C160.634 23.4533 161 25.106 161 26.9961C161 28.8676 160.634 30.5156 159.897 31.9309C159.16 33.3462 158.113 34.4495 156.757 35.241C155.401 36.0324 153.791 36.4234 151.927 36.4234ZM151.951 32.4989C152.8 32.4989 153.505 32.2568 154.077 31.7773C154.65 31.2978 155.077 30.6414 155.368 29.808C155.659 28.9747 155.804 28.025 155.804 26.9635C155.804 25.9021 155.659 24.9524 155.368 24.119C155.077 23.2857 154.645 22.6293 154.077 22.1451C153.509 21.661 152.8 21.4189 151.951 21.4189C151.097 21.4189 150.379 21.661 149.796 22.1451C149.214 22.6293 148.778 23.2857 148.487 24.119C148.196 24.9524 148.05 25.9021 148.05 26.9635C148.05 28.025 148.196 28.9747 148.487 29.808C148.778 30.6414 149.214 31.2978 149.796 31.7773C150.379 32.2568 151.097 32.4989 151.951 32.4989Z" fill="white"/>
</g>
<defs>
<clipPath id="clip0_1_12">
<rect width="161" height="47" fill="white"/>
</clipPath>
</defs>
</svg>
